<?xml version="1.0" encoding="UTF-8"?>
<svg xmlns="http://www.w3.org/2000/svg" xmlns:xlink="http://www.w3.org/1999/xlink" width="23pt" height="18pt" viewBox="0 0 23 18" version="1.1">
<g id="surface1">
<path style=" stroke:none;fill-rule:nonzero;fill:rgb(0%,0%,0%);fill-opacity:1;" d="M 11.445312 0.0273438 C 10.714844 0.144531 10.042969 0.6875 9.695312 1.441406 C 9.199219 2.523438 9.390625 3.835938 10.164062 4.671875 C 10.484375 5.019531 10.828125 5.226562 11.28125 5.351562 C 11.433594 5.394531 11.492188 5.398438 11.769531 5.402344 C 12.058594 5.402344 12.101562 5.398438 12.277344 5.351562 C 12.960938 5.167969 13.511719 4.703125 13.839844 4.019531 C 14.4375 2.785156 14.109375 1.246094 13.082031 0.449219 C 12.621094 0.09375 12.011719 -0.0625 11.445312 0.0273438 Z M 11.445312 0.0273438 "/>
<path style=" stroke:none;fill-rule:nonzero;fill:rgb(0%,0%,0%);fill-opacity:1;" d="M 17.242188 1.089844 C 16.742188 1.171875 16.328125 1.394531 15.957031 1.777344 C 15.589844 2.160156 15.34375 2.652344 15.234375 3.222656 C 15.203125 3.386719 15.195312 3.492188 15.191406 3.769531 C 15.191406 4.164062 15.21875 4.355469 15.328125 4.699219 C 15.46875 5.136719 15.664062 5.464844 15.972656 5.78125 C 16.324219 6.140625 16.65625 6.332031 17.125 6.441406 C 17.308594 6.484375 17.78125 6.484375 17.964844 6.441406 C 18.53125 6.308594 18.996094 5.996094 19.351562 5.511719 C 19.855469 4.816406 20.023438 3.910156 19.808594 3.023438 C 19.691406 2.539062 19.460938 2.121094 19.113281 1.765625 C 18.777344 1.417969 18.417969 1.214844 17.980469 1.117188 C 17.828125 1.082031 17.390625 1.066406 17.242188 1.089844 Z M 17.242188 1.089844 "/>
<path style=" stroke:none;fill-rule:nonzero;fill:rgb(0%,0%,0%);fill-opacity:1;" d="M 5.050781 2.117188 C 4.265625 2.25 3.570312 2.863281 3.253906 3.707031 C 3.101562 4.097656 3.042969 4.480469 3.058594 4.921875 C 3.082031 5.476562 3.234375 5.964844 3.527344 6.410156 C 3.660156 6.621094 3.9375 6.921875 4.128906 7.0625 C 4.878906 7.617188 5.84375 7.640625 6.613281 7.121094 C 7.617188 6.4375 8.039062 5 7.59375 3.757812 C 7.453125 3.375 7.269531 3.074219 6.988281 2.789062 C 6.457031 2.238281 5.757812 1.996094 5.050781 2.117188 Z M 5.050781 2.117188 "/>
<path style=" stroke:none;fill-rule:nonzero;fill:rgb(0%,0%,0%);fill-opacity:1;" d="M 11.367188 5.761719 C 9.878906 5.847656 8.523438 6.328125 7.59375 7.101562 C 7.386719 7.273438 7.0625 7.613281 6.925781 7.804688 C 6.867188 7.886719 6.820312 7.953125 6.820312 7.957031 C 6.820312 7.957031 6.753906 7.945312 6.675781 7.933594 C 5.765625 7.773438 4.617188 7.816406 3.660156 8.039062 C 2.527344 8.300781 1.574219 8.800781 0.90625 9.484375 C 0.402344 10.003906 0.117188 10.542969 0.0273438 11.164062 C 0.00390625 11.332031 0 11.773438 0 14.675781 L 0 17.992188 L 10.871094 17.992188 L 10.871094 15.90625 L 12.128906 15.90625 L 12.128906 16.976562 L 23 16.976562 L 23 13.660156 C 23 10.054688 23.003906 10.160156 22.902344 9.800781 C 22.644531 8.894531 21.878906 8.078125 20.761719 7.527344 C 19.894531 7.097656 18.945312 6.871094 17.796875 6.824219 C 17.3125 6.804688 16.554688 6.863281 16.074219 6.960938 L 15.894531 6.996094 L 15.695312 6.863281 C 14.800781 6.253906 13.742188 5.894531 12.507812 5.785156 C 12.195312 5.757812 11.667969 5.746094 11.367188 5.761719 Z M 11.367188 5.761719 "/>
</g>
</svg>
