<?xml version="1.0" encoding="utf-8"?>
<!-- Generator: Adobe Illustrator 22.0.0, SVG Export Plug-In . SVG Version: 6.00 Build 0)  -->
<svg version="1.1" id="Layer_1" xmlns="http://www.w3.org/2000/svg" xmlns:xlink="http://www.w3.org/1999/xlink" x="0px" y="0px"
	 viewBox="0 0 566.9 283.5" style="enable-background:new 0 0 566.9 283.5;" xml:space="preserve">
<style type="text/css">
	.st0{clip-path:url(#SVGID_2_);fill:url(#SVGID_3_);}
</style>
<g>
	<defs>
		<path id="SVGID_1_" d="M491.3,165.3c1.9-16.5,8.4-31.7,18.2-31.7c8.6,0,6.6,33.4-11.1,33.4C496.4,166.9,494,166.4,491.3,165.3
			 M482.9,122.2c-7.6,6.8-20.1,29.7-20.1,54.4c0,19,15.8,42.8,42.2,42.8c29.8,0,40.9-46.6,42.2-50.4c1.3-4-2.5-5.3-3.8-1.7
			c-1.1,3.2-9.7,40.1-33.8,40.1c-10.5,0-22.1-19.2-20.5-38c4,1.1,9.3,2.5,13.9,2.5c12.4,0,21.9-10.5,21.9-30.4
			c0-10.6-4.2-19.4-9.9-22.1c-2.7-1.3-7.9-2.2-13.6-2.2C494.5,117.1,487.1,118.4,482.9,122.2 M388.9,200.3c0-35,11.6-68.6,25.7-68.6
			c7,0,2.7,15.4,2.7,19.6c0,1.9,3,2.5,6.1,2.3c-0.6,6.3-0.9,11.6-0.9,15.6c0,9.9-18.1,49.6-23.8,49.6
			C392.9,218.7,388.9,207.3,388.9,200.3 M435.5,67.4c0,1-5.1,31.2-8.9,59.7c-3.8-4.4-10.3-4.4-20.7-4.4c-28.1,0-41.8,40.9-41.8,65.8
			c0,0.8,0,1.5,0,2.2c-5.8,15.2-11.8,29.5-13.7,29.5c-6.3,0-5.1-36.5-5.7-49.4v-3c0-4-4.8-9.3-16.3-9.3c-11.4,0-11.4,6.8-11.4,10.6
			c0,9.9-12,49.6-17.7,49.6c-5.7,0-6.5-11.4-6.5-18.4c0-35,16.5-68.8,35.2-68.8c7,0,8.4,15.4,8.4,19.8c0,4.2,6.8,1.9,6.8-0.8
			c0-27.8-13.9-27.8-33.5-27.8c-28.1,0-41.8,40.7-41.8,65.6c0,0.4,0,0.8,0,1.2c-5.2,9.2-11.2,18.3-15.3,20.2
			c-2.8-7.4-6-20.4-4.8-40.7c0.5-8.2,2.3-19.5,2.7-26.3c0.6-9.5-22.9-18.3-23.4-9.9c-0.3,4.7-2.8,12.6-4.1,34.6
			c-1,17.5-0.1,53.1,24.6,54.6c0.2,0,0.2,0,0.4,0c6.6,0.4,14.4-10.4,20.9-22.4c3,18,13.7,25.2,26.3,25.2c15,0,22.2-28.9,23.8-28.9
			c1.3,0,5.7,37.1,23.6,37.1c1.3,0,2.5-0.2,3-0.6c6.8-2.4,14.1-15.5,20.3-30.1c4.3,16.2,16.5,22.7,28.8,22.7
			c15,0,24.7-22.6,26.2-22.6c1.3,0,5.1,40.5,29.7,40.5c8.6,0-4.4-2.1-4.4-75.1c0-42.2,13.9-85.5,13.9-92.4
			c0-6.8-16.7-12.5-20.5-12.5C435.6,62.8,435.5,65.9,435.5,67.4 M250,94.4c-5.1-1.2-8.3-6.3-7.1-11.4c1.2-5.1,6.4-8.2,11.5-7
			c5.1,1.2,8.3,6.3,7.1,11.4c-1.1,4.3-5,7.3-9.2,7.3C251.5,94.6,250.7,94.5,250,94.4 M230,79.8c-2.7,11.4,6.7,30.5,11.2,38.5
			c1.2,2.1,3.9,2.8,5.9,1.4c7.6-5.2,24.7-17.9,27.4-29.3c2.9-12.2-4.7-24.5-16.9-27.4c-1.8-0.4-3.6-0.6-5.3-0.6
			C241.9,62.4,232.5,69.4,230,79.8 M187.8,114c0,45.8-28.9,94.7-45.6,102.3c-2.1-7.2-6.8-20.3-6.8-43.9c0-19.4,0.6-32.7,0.6-75.5
			c0-14.4-12-30.6-23.2-31.4c-3.6-1.3-7.6-2.1-12.2-2.1c-24.5,0-40.9,6.8-57.6,6.8c-16.5,0-15.2-4.2-21.7-4.2
			c-6.5,0,6.3,28.3,23.2,28.3c15,0,32.7-6.3,58.5-7.6c0.2,94.9,11.8,138,31.4,138c3.6,0,5.9-0.2,7.2-0.8
			c31.2-5.9,73.9-51.5,73.9-106.6c0-57.2-25.9-76.8-43.2-76.8C155.3,40.6,187.8,60.2,187.8,114"/>
	</defs>
	<clipPath id="SVGID_2_">
		<use xlink:href="#SVGID_1_"  style="overflow:visible;"/>
	</clipPath>
	
		<linearGradient id="SVGID_3_" gradientUnits="userSpaceOnUse" x1="0" y1="283.465" x2="1" y2="283.465" gradientTransform="matrix(527.8835 0 0 -527.8835 19.5228 149778.2344)">
		<stop  offset="0" style="stop-color:#58529F"/>
		<stop  offset="0.2065" style="stop-color:#4C62AB"/>
		<stop  offset="0.4735" style="stop-color:#5697D1"/>
		<stop  offset="1" style="stop-color:#50C1E1"/>
	</linearGradient>
	<rect x="14.8" y="40.6" class="st0" width="533.7" height="202.3"/>
</g>
</svg>
