<?xml version="1.0" encoding="utf-8"?>
<!-- Generator: Adobe Illustrator 22.0.0, SVG Export Plug-In . SVG Version: 6.00 Build 0)  -->
<svg version="1.1" id="Layer_1" xmlns="http://www.w3.org/2000/svg" xmlns:xlink="http://www.w3.org/1999/xlink" x="0px" y="0px"
	 viewBox="0 0 422.4 425.2" style="enable-background:new 0 0 422.4 425.2;" xml:space="preserve">
<style type="text/css">
	.st0{clip-path:url(#SVGID_2_);fill:url(#SVGID_3_);}
	.st1{fill:url(#SVGID_4_);}
	.st2{fill:url(#SVGID_5_);}
	.st3{fill:#FFFFFF;}
</style>
<g>
	<defs>
		<path id="SVGID_1_" d="M169.7,97.2c-0.1-7.7,6-14.1,13.7-14.3s14.1,5.9,14.3,13.7c0.1,7.7-6,14.1-13.7,14.3c-0.1,0-0.2,0-0.3,0
			C176.1,110.9,169.9,104.9,169.7,97.2 M183,63.4c-18.5,0.4-33.2,15.7-32.9,34.2c0.4,17.3,21,40.9,30.3,50.7
			c2.4,2.6,6.6,2.5,8.9-0.2c8.9-10.2,28.5-34.7,28.1-52c-0.5-18.3-15.4-32.8-33.6-32.8C183.5,63.4,183.2,63.4,183,63.4"/>
	</defs>
	<clipPath id="SVGID_2_">
		<use xlink:href="#SVGID_1_"  style="overflow:visible;"/>
	</clipPath>
	
		<linearGradient id="SVGID_3_" gradientUnits="userSpaceOnUse" x1="0" y1="425.1918" x2="1" y2="425.1918" gradientTransform="matrix(67.3048 0 0 -67.3048 150.0722 28724.6328)">
		<stop  offset="0" style="stop-color:#58529F"/>
		<stop  offset="0.2065" style="stop-color:#4C62AB"/>
		<stop  offset="0.4735" style="stop-color:#5697D1"/>
		<stop  offset="1" style="stop-color:#50C1E1"/>
	</linearGradient>
	<rect x="149.8" y="63.4" class="st0" width="68" height="87.5"/>
</g>
<g>
	
		<linearGradient id="SVGID_4_" gradientUnits="userSpaceOnUse" x1="6.144719e-07" y1="425.197" x2="1" y2="425.197" gradientTransform="matrix(351.787 0 0 -351.787 35.2876 149815.8125)">
		<stop  offset="0" style="stop-color:#58529F"/>
		<stop  offset="0.2065" style="stop-color:#4C62AB"/>
		<stop  offset="0.4735" style="stop-color:#5697D1"/>
		<stop  offset="1" style="stop-color:#50C1E1"/>
	</linearGradient>
	<path class="st1" d="M163.5,154.8c-9.9-17.2-34.7-17.2-44.6,0l-80,138.6c-9.9,17.2,2.5,38.7,22.3,38.7h32.4c1.9-3,4-5.9,6.3-8.6
		c4.1-4.9,8.8-9.3,14.1-12.9c5.3-3.7,11.1-6.5,17-8.5c0.7-0.3,1.5-0.5,2.2-0.7c0.7-0.2,1.5-0.4,2.2-0.6c0.7-0.2,1.5-0.4,2.2-0.6
		l1.1-0.3l1-0.2l3.4-0.7l3.4-0.8c9-2.3,17.8-5.7,25.8-10.3c8-4.7,15.3-10.6,21.2-17.9c5.8-7.2,10.3-15.7,11.7-24.8
		c0.1-0.6,0.2-1.2,0.2-1.6l0.1-0.8l0-0.8c0-1.1,0-2.2-0.1-3.3c-0.2-2.3-0.7-4.6-1.3-7c-1.3-4.7-3.1-9.4-5.1-14
		c-2.1-4.6-4.4-9.1-6.9-13.6c-1.2-2.2-2.5-4.4-3.9-6.6l-2-3.3l-0.5-0.8l-0.3-0.4L163.5,154.8z"/>
	
		<linearGradient id="SVGID_5_" gradientUnits="userSpaceOnUse" x1="0" y1="425.197" x2="1" y2="425.197" gradientTransform="matrix(351.787 0 0 -351.787 35.2876 149815.8125)">
		<stop  offset="0" style="stop-color:#58529F"/>
		<stop  offset="0.2065" style="stop-color:#4C62AB"/>
		<stop  offset="0.4735" style="stop-color:#5697D1"/>
		<stop  offset="1" style="stop-color:#50C1E1"/>
	</linearGradient>
	<path class="st2" d="M185.8,192.4l38.8-67.3c5-8.6,13.6-12.9,22.3-12.9c8.7,0,17.4,4.3,22.3,12.9l114.3,197.9
		c9.9,17.2-2.5,38.7-22.3,38.7H132.7c-5.8,0-11-1.9-15.2-4.9c0.4-1.5,0.8-3.1,1.4-4.6c2.6-7.8,6.6-14.6,12.1-19.9
		c2.8-2.7,5.9-4.9,9.5-6.8c0.4-0.2,0.9-0.5,1.3-0.7c0.5-0.2,0.9-0.4,1.4-0.6c0.5-0.2,0.9-0.4,1.4-0.6l0.7-0.3l0.4-0.1l0.5-0.2
		l3.9-1.4l3.9-1.6c10.3-4.4,20.2-10,28.9-17.1c8.7-7.1,16.4-15.5,22.1-25.2c5.6-9.7,9.4-20.6,9.5-32c0-0.7,0-1.4,0-2.2l-0.1-1.1
		l-0.1-1.1c-0.2-1.5-0.5-2.9-0.8-4.3c-0.7-2.7-1.7-5.3-2.8-7.8c-2.2-4.9-4.8-9.5-7.6-13.9c-2.8-4.4-5.9-8.6-9-12.6
		c-1.6-2-3.2-4-4.9-6L185.8,192.4z"/>
	<path class="st3" d="M115.2,376.1C115.2,376.1,115.2,376.2,115.2,376.1L115.2,376.1C115.1,376.1,115.1,376.1,115.2,376.1
		C115.2,376.1,115.2,376.1,115.2,376.1z"/>
</g>
</svg>
